<svg width="24" height="25" viewBox="0 0 24 25" fill="none" xmlns="http://www.w3.org/2000/svg">
<path d="M12 1.74999C12.165 1.74999 12.3287 1.74999 12.4912 1.74999C10.8854 3.24212 9.85321 5.2498 9.57408 7.42402C9.29496 9.59824 9.78655 11.8015 10.9634 13.6509C12.1402 15.5003 13.9279 16.8788 16.0157 17.5468C18.1035 18.2149 20.3594 18.1302 22.3912 17.3075C21.6096 19.1881 20.3322 20.8213 18.6952 22.0328C17.0582 23.2443 15.123 23.9888 13.0961 24.1867C11.0692 24.3847 9.02655 24.0287 7.18608 23.1567C5.34562 22.2848 3.77636 20.9296 2.64571 19.2357C1.51505 17.5419 0.86541 15.5728 0.766078 13.5387C0.666745 11.5046 1.12145 9.48161 2.08169 7.68563C3.04192 5.88965 4.47167 4.38802 6.21843 3.34091C7.96518 2.29379 9.96341 1.74048 12 1.73999V1.74999Z" stroke="white" stroke-width="1.5" stroke-linecap="round" stroke-linejoin="round"/>
</svg>
